<?xml version="1.0" encoding="UTF-8"?>
<svg version="1.1" xmlns="http://www.w3.org/2000/svg" width="1024" height="1024">
<path d="M0 0 C3.94381561 2.92200884 6.86982287 6.71974796 8.71875 11.2734375 C9.60429389 18.32050257 9.5378479 24.50440357 5.49609375 30.4921875 C-0.65879022 36.66059869 -6.74329682 38.57566168 -15.03125 40.6484375 C-54.63974304 51.1819066 -91.75112809 70.32233574 -122.01171875 98.1875 C-124.1088505 100.11498426 -126.24501355 101.98105107 -128.40625 103.8359375 C-135.28401707 109.85915235 -141.30376651 116.31720814 -147.015625 123.45703125 C-148.43553156 125.22212199 -149.88009205 126.9679592 -151.359375 128.68359375 C-181.7707441 164.21984172 -198.84618575 208.78611309 -207.28125 254.2734375 C-206.02054688 254.25023437 -204.75984375 254.22703125 -203.4609375 254.203125 C-149.88803309 253.51974431 -103.61000364 267.7342017 -59.39233398 297.51489258 C-13.13517176 328.6456523 37.42799308 340.97171668 93.02148438 330.8125 C121.92581434 325.03582001 144.92424746 311.57028905 169.10205078 295.33862305 C181.53318803 287.012497 194.19562965 279.67967882 207.71875 273.2734375 C208.80027344 272.75007813 209.88179687 272.22671875 210.99609375 271.6875 C242.86462569 257.08591809 279.06623693 253.62973757 313.71875 254.2734375 C304.30361275 209.60956028 289.19335893 166.94334639 259.71875 131.2734375 C259.28884766 130.74878906 258.85894531 130.22414063 258.41601562 129.68359375 C221.42239715 84.64318819 173.63196362 54.46237529 117.34472656 39.24511719 C109.08289448 36.99256056 103.61951312 34.72127428 98.84375 27.3984375 C96.47432385 20.8166982 96.16145393 15.95465661 98.64453125 9.44921875 C101.11679468 4.44176155 104.18424512 1.18823849 108.96875 -1.6640625 C117.96724828 -4.21363701 126.01369293 -2.21611521 134.78125 0.3984375 C135.8846875 0.71973633 136.988125 1.04103516 138.125 1.37207031 C182.14215847 14.35379354 222.43561851 36.19880501 256.390625 67.1640625 C258.45028033 69.03019317 260.54263895 70.84413538 262.65625 72.6484375 C270.59508673 79.57483149 277.97035529 87.188727 284.71875 95.2734375 C285.36287842 96.02294678 285.36287842 96.02294678 286.02001953 96.78759766 C300.28531441 113.41206063 312.60642317 131.83991874 322.71875 151.2734375 C323.22776855 152.24603516 323.22776855 152.24603516 323.74707031 153.23828125 C326.15852167 157.87586156 328.45856302 162.56063091 330.71875 167.2734375 C331.26917969 168.39621094 331.81960938 169.51898438 332.38671875 170.67578125 C345.8992277 199.72286106 366.47577857 250.96504401 356.99584961 282.69287109 C354.54113479 288.41030805 350.10235422 292.58722017 344.57397461 295.34228516 C341.04620647 296.49276893 337.81812174 296.48686493 334.15625 296.3984375 C332.63615219 296.3809138 331.1160511 296.36367309 329.59594727 296.34667969 C328.80068634 296.33423218 328.00542542 296.32178467 327.18606567 296.30895996 C302.41784856 295.95236675 277.98371695 296.88803528 253.71875 302.2734375 C253.03216309 302.42006836 252.34557617 302.56669922 251.63818359 302.71777344 C243.91136591 304.40284624 236.63468593 306.94767657 229.34375 309.9609375 C228.63774658 310.25129883 227.93174316 310.54166016 227.2043457 310.84082031 C213.42369004 316.76541474 200.69856906 324.3066384 188.36053467 332.78463745 C176.49053388 340.92694859 164.61584621 348.83163827 151.71875 355.2734375 C150.78337402 355.75224365 150.78337402 355.75224365 149.82910156 356.24072266 C100.29942377 381.44205949 34.23081639 382.94281073 -18.21411133 366.6875 C-26.17067955 364.09569039 -33.75786283 360.92470601 -41.28125 357.2734375 C-42.32055664 356.78012939 -42.32055664 356.78012939 -43.38085938 356.27685547 C-55.42789253 350.50047145 -66.48774777 343.38206108 -77.50317383 335.86987305 C-109.0660412 314.35434173 -140.85165618 300.35296829 -179.28125 297.2734375 C-180.5909375 297.16257812 -181.900625 297.05171875 -183.25 296.9375 C-191.31816303 296.35750972 -199.34852582 296.258532 -207.43359375 296.35546875 C-209.09667963 296.37126265 -210.75976557 296.38705035 -212.42285156 296.40283203 C-215.74475703 296.43564196 -219.06459145 296.49709621 -222.38574219 296.57373047 C-231.40550214 296.71821109 -238.14747581 296.70354766 -245.3046875 290.52734375 C-245.75070313 289.96917969 -246.19671875 289.41101563 -246.65625 288.8359375 C-247.11773437 288.28035156 -247.57921875 287.72476562 -248.0546875 287.15234375 C-254.27155051 277.62905997 -251.09736081 264.67761743 -249.65625 254.0859375 C-249.4794873 252.78092285 -249.30272461 251.4759082 -249.12060547 250.13134766 C-247.36391873 237.62629411 -244.60132805 225.451273 -241.28125 213.2734375 C-241.04680176 212.3954248 -240.81235352 211.51741211 -240.57080078 210.61279297 C-225.39932262 154.43442607 -190.91808626 98.96355235 -145.078125 62.51171875 C-142.19266678 60.20254618 -139.39825288 57.80500416 -136.59375 55.3984375 C-125.63868409 46.25975557 -113.56510714 38.4951115 -101.28125 31.2734375 C-100.66185547 30.90428223 -100.04246094 30.53512695 -99.40429688 30.15478516 C-78.30657724 17.65724434 -55.71798931 8.36339456 -32.28125 1.2734375 C-31.51796387 1.03625 -30.75467773 0.7990625 -29.96826172 0.5546875 C-20.0035491 -2.51770841 -9.60575481 -5.55086651 0 0 Z " fill="#288A9F" transform="translate(459.28125,213.7265625)"/>
<path d="M0 0 C52.25208651 17.08130991 107.81951424 28.24805364 162.7149353 18.41702271 C163.5193103 18.27296997 164.3236853 18.12891724 165.1524353 17.98049927 C169.35926603 17.20749412 173.54232318 16.35987256 177.7149353 15.41702271 C174.15607883 24.15053831 163.85077291 31.48215123 156.7149353 37.41702271 C156.17804077 37.86771118 155.64114624 38.31839966 155.08798218 38.78274536 C138.9422284 52.29941784 121.99105167 63.96018507 103.7149353 74.41702271 C103.00401733 74.82549438 102.29309937 75.23396606 101.56063843 75.65481567 C32.83045762 114.72094562 -50.58674103 121.31902841 -126.1913147 101.27200317 C-171.37246963 88.78586014 -214.20703432 65.73344367 -248.2850647 33.41702271 C-249.57129833 32.30653189 -250.86274891 31.20204653 -252.1600647 30.10452271 C-260.94641054 22.43676709 -269.0401337 14.07778112 -276.27334595 4.93264771 C-278.75186983 1.83328969 -281.38906379 -1.10003753 -284.07022095 -4.02438354 C-285.2850647 -5.58297729 -285.2850647 -5.58297729 -285.2850647 -7.58297729 C-284.04240845 -7.43860229 -282.7997522 -7.29422729 -281.5194397 -7.14547729 C-243.00090645 -3.04504676 -205.29008236 -6.24378177 -167.40396118 -13.71383667 C-110.05768694 -25.00049569 -55.19770504 -18.06220368 0 0 Z " fill="#135673" transform="translate(556.2850646972656,701.5829772949219)"/>
<path d="M0 0 C19.24429629 5.84377041 38.76269732 10.2270946 58.65917969 13.17553711 C59.32852539 13.27938721 59.99787109 13.3832373 60.6875 13.49023438 C105.59302138 19.52434592 144.91946412 7.88964259 180.60620117 -19.30834961 C185.35837869 -22.86456969 185.35837869 -22.86456969 188.47167969 -22.44946289 C191.27345495 -20.36814412 191.85465491 -19.22645339 192.65917969 -15.82446289 C191.84905813 -12.9980388 190.97992742 -10.60467311 189.78417969 -7.94946289 C189.45901367 -7.20277344 189.13384766 -6.45608398 188.79882812 -5.68676758 C187.77932988 -3.38583697 186.72669056 -1.10347448 185.65917969 1.17553711 C185.34625977 1.85068359 185.03333984 2.52583008 184.7109375 3.22143555 C174.15166869 25.58554048 155.91624278 41.87008477 132.64453125 50.49194336 C72.92546226 71.054338 10.15906601 55.50973343 -47.90332031 36.98803711 C-66.25935238 31.13556525 -84.76876898 26.11122879 -103.77832031 22.86303711 C-104.63941406 22.71560059 -105.50050781 22.56816406 -106.38769531 22.41625977 C-123.5062821 19.71215707 -140.65582755 18.78866713 -157.96582031 18.86303711 C-158.92625244 18.86585693 -159.88668457 18.86867676 -160.8762207 18.87158203 C-186.38425417 18.9834316 -210.57617223 22.5270245 -235.57714844 27.30639648 C-271.32363895 34.10905953 -305.43334135 34.17529693 -341.40332031 29.17553711 C-342.61109131 29.00957031 -343.8188623 28.84360352 -345.06323242 28.67260742 C-346.76491577 28.42655762 -346.76491577 28.42655762 -348.50097656 28.17553711 C-349.50781494 28.03116211 -350.51465332 27.88678711 -351.55200195 27.73803711 C-358.44125269 26.34848675 -358.44125269 26.34848675 -360.82299805 23.24291992 C-361.21946533 22.46271484 -361.61593262 21.68250977 -362.02441406 20.87866211 C-362.47453857 20.00870605 -362.92466309 19.13875 -363.38842773 18.24243164 C-364.07642456 16.84806885 -364.07642456 16.84806885 -364.77832031 15.42553711 C-365.25696533 14.4792041 -365.73561035 13.53287109 -366.22875977 12.55786133 C-367.62319818 9.77465774 -368.98873182 6.97952581 -370.34082031 4.17553711 C-370.69982422 3.43400391 -371.05882812 2.6924707 -371.42871094 1.9284668 C-374.49759277 -4.50618463 -376.89134894 -9.57296863 -376.34082031 -16.82446289 C-373.91510398 -20.86732345 -371.80260707 -22.49037336 -367.34082031 -23.82446289 C-364.31914622 -24.0829028 -361.31660229 -24.0360724 -358.28613281 -23.98803711 C-357.37761598 -23.98199746 -356.46909914 -23.97595781 -355.53305149 -23.96973515 C-353.55349329 -23.95557422 -351.57396352 -23.93688565 -349.59448433 -23.91422844 C-346.41421812 -23.87857184 -343.23410417 -23.85604166 -340.05369568 -23.83729553 C-335.5090649 -23.81027757 -330.96448088 -23.77978779 -326.41989136 -23.74655151 C-288.16824154 -23.48024159 -250.26842396 -23.84658929 -212.14413452 -27.11479187 C-139.38103174 -33.29035853 -69.34938825 -21.21945474 0 0 Z " fill="#1CA6BB" transform="translate(605.3408203125,632.824462890625)"/>
<path d="M0 0 C2.64925533 2.38644213 4.21867951 4.90881567 5.93359375 8.0234375 C6.49353027 9.0330957 7.0534668 10.04275391 7.63037109 11.08300781 C8.22672363 12.16936523 8.82307617 13.25572266 9.4375 14.375 C10.70881375 16.66972624 11.98096122 18.96399077 13.25390625 21.2578125 C13.88828613 22.40282227 14.52266602 23.54783203 15.17626953 24.72753906 C17.70155826 29.25886036 20.28540294 33.75523764 22.875 38.25 C29.82172714 50.35128368 36.55805259 62.56869017 43.25390625 74.81005859 C44.2926833 76.70780201 45.33356086 78.60440188 46.37890625 80.49853516 C84.95496431 150.44151172 84.95496431 150.44151172 75 185 C68.33714625 205.95610436 54.69968771 221.93010488 35.1875 232.1875 C15.6695807 241.59433224 -4.88558919 242.41394456 -25.37109375 235.93359375 C-46.86972724 228.26093657 -61.77907645 212.70732505 -71.52734375 192.43359375 C-73.55353348 187.70940071 -74.96290041 183.02785881 -76 178 C-76.226875 176.906875 -76.45375 175.81375 -76.6875 174.6875 C-79.86234137 137.22437186 -56.18715638 99.35095806 -38.45898438 67.62841797 C-36.97881614 64.96183645 -35.52465466 62.28262002 -34.078125 59.59765625 C-27.21803516 46.87162654 -20.03116043 34.3616521 -12.70166016 21.90087891 C-9.990123 17.27842776 -7.30676535 12.63976759 -4.625 8 C-4.15441162 7.18635986 -3.68382324 6.37271973 -3.19897461 5.53442383 C-2.13227082 3.68983496 -1.06607062 1.84495488 0 0 Z " fill="#E07720" transform="translate(512,272)"/>
<path d="M0 0 C52.25208651 17.08130991 107.81951424 28.24805364 162.7149353 18.41702271 C163.5193103 18.27296997 164.3236853 18.12891724 165.1524353 17.98049927 C169.35926603 17.20749412 173.54232318 16.35987256 177.7149353 15.41702271 C174.15607883 24.15053831 163.85077291 31.48215123 156.7149353 37.41702271 C156.17804077 37.86771118 155.64114624 38.31839966 155.08798218 38.78274536 C147.44271685 45.18309984 139.65670906 51.32797098 131.5274353 57.10452271 C130.82110962 57.60943237 130.11478394 58.11434204 129.38705444 58.634552 C128.71795044 59.10288452 128.04884644 59.57121704 127.35946655 60.05374146 C126.77527954 60.4632605 126.19109253 60.87277954 125.58920288 61.29470825 C120.6294524 64.26461485 116.7283149 64.60905191 111.04696655 64.09671021 C110.30374146 64.03845566 109.56051636 63.98020111 108.79476929 63.92018127 C106.37090026 63.72495905 103.94933843 63.51021244 101.5274353 63.29202271 C100.69448944 63.21978485 99.86154358 63.147547 99.00335693 63.07312012 C66.6572712 60.25503851 35.16370365 53.98984307 4.20077515 44.18655396 C-0.70940471 42.6665297 -5.65777848 41.27467306 -10.5975647 39.85452271 C-17.09622736 37.98080954 -23.52980908 36.03601559 -29.9100647 33.79202271 C-38.56763548 30.86132449 -47.3905742 28.83470719 -56.34268188 27.01663208 C-58.2498219 26.62798821 -60.15439296 26.22642624 -62.05557251 25.80960083 C-91.85230606 19.39831072 -125.94375577 19.63376099 -155.74160767 25.88674927 C-158.26123799 26.41205519 -160.78471368 26.87376212 -163.32022095 27.31546021 C-169.99165769 28.25460971 -169.99165769 28.25460971 -176.2850647 30.41702271 C-178.62183269 30.76949092 -180.96598403 31.07343381 -183.31240845 31.35452271 C-184.36773521 31.48201904 -184.36773521 31.48201904 -185.44438171 31.61209106 C-186.93964957 31.7919903 -188.43513598 31.97008071 -189.93081665 32.14651489 C-192.18286644 32.4123369 -194.43419278 32.68368516 -196.68545532 32.95608521 C-203.66982938 33.79503028 -210.65231106 34.58968359 -217.66323853 35.17630005 C-219.5318809 35.34786922 -221.39762699 35.55231583 -223.26040649 35.77883911 C-243.3997658 38.21623744 -243.3997658 38.21623744 -249.4100647 34.19436646 C-252.26004375 31.77642557 -254.62708607 29.01802572 -256.93057251 26.08352661 C-259.0824845 23.43591464 -261.5576465 21.19958568 -264.0350647 18.85452271 C-268.39394611 14.45762779 -272.35136375 9.84704209 -276.20303345 5.00296021 C-278.71221651 1.88648894 -281.36699903 -1.07597144 -284.07022095 -4.02438354 C-285.2850647 -5.58297729 -285.2850647 -5.58297729 -285.2850647 -7.58297729 C-284.04240845 -7.43860229 -282.7997522 -7.29422729 -281.5194397 -7.14547729 C-243.00090645 -3.04504676 -205.29008236 -6.24378177 -167.40396118 -13.71383667 C-110.05768694 -25.00049569 -55.19770504 -18.06220368 0 0 Z " fill="#188FAA" transform="translate(556.2850646972656,701.5829772949219)"/>
<path d="M0 0 C2.93071413 0.03117004 5.86088421 0.04099514 8.79174805 0.046875 C14.36298832 0.06822052 19.93090117 0.15754786 25.50073242 0.28125 C26.33421204 0.29663818 27.16769165 0.31202637 28.02642822 0.32788086 C30.34345635 0.37852118 32.65758289 0.45712693 34.97338867 0.546875 C36.91290405 0.61310059 36.91290405 0.61310059 38.89160156 0.68066406 C44.19528887 1.56323666 47.87748978 3.7457502 51.81323242 7.46875 C54.53067556 11.9978219 55.87810637 16.34450662 55.19604492 21.65234375 C53.6030947 27.4833282 50.61119035 31.10025068 45.50073242 34.28125 C41.39724943 36.30827172 37.72609867 36.58700313 33.18823242 36.90625 C20.20728234 38.23701468 10.04149571 44.94256303 -0.22167969 52.55957031 C-28.69248048 73.38072174 -67.51540011 77.49428177 -101.49926758 72.28125 C-113.10060271 70.17860657 -126.63112684 66.86001049 -136.49926758 60.28125 C-136.43676758 58.015625 -136.43676758 58.015625 -135.49926758 55.28125 C-133.14098458 53.77047496 -131.03466458 52.65391206 -128.49926758 51.53125 C-127.02315441 50.83383329 -125.54792006 50.13455405 -124.07348633 49.43359375 C-123.31213379 49.07765137 -122.55078125 48.72170898 -121.76635742 48.35498047 C-109.55655923 42.57222229 -98.08705753 35.65630822 -86.64770508 28.49609375 C-59.03327336 11.21264775 -33.14254707 -0.35384486 0 0 Z " fill="#1CA5B9" transform="translate(757.499267578125,542.71875)"/>
<path d="M0 0 C3.72725187 1.15210658 7.45696383 2.29607701 11.1875 3.4375 C12.11481934 3.72197998 13.04213867 4.00645996 13.99755859 4.29956055 C37.4112239 11.42934544 61.11963002 17.63998995 85 23 C82.5356115 25.94972795 80.32389783 26.72010408 76.64453125 27.68359375 C75.55978516 27.96952393 74.47503906 28.2554541 73.35742188 28.55004883 C72.18759766 28.84290771 71.01777344 29.1357666 69.8125 29.4375 C68.60013672 29.74389404 67.38777344 30.05028809 66.13867188 30.3659668 C-6.45946389 48.26460734 -86.60999144 38.81938326 -152 2 C-152 1.34 -152 0.68 -152 0 C-142.78941914 -2.01226788 -133.5618916 -3.90117458 -124.3034668 -5.67993164 C-122.30291527 -6.06434173 -120.30279723 -6.45094685 -118.30273438 -6.83789062 C-77.44046139 -14.72957725 -39.78104737 -12.47383058 0 0 Z " fill="#164660" transform="translate(519,775)"/>
<path d="M0 0 C2.63474324 2.70822213 3.9609375 4.1572121 3.9609375 8.015625 C1.40062173 9.29578289 -0.41400532 9.14727142 -3.28166199 9.15606689 C-4.39337769 9.16177704 -5.50509338 9.16748718 -6.65049744 9.17337036 C-7.87595779 9.17448822 -9.10141815 9.17560608 -10.36401367 9.17675781 C-12.293423 9.18420517 -12.293423 9.18420517 -14.2618103 9.19180298 C-17.79717257 9.20493721 -21.33251584 9.2113744 -24.8678987 9.21581364 C-27.07741982 9.21874388 -29.28693574 9.22284869 -31.49645424 9.22731781 C-38.41146642 9.24099801 -45.32646672 9.25066101 -52.2414915 9.2545197 C-60.21961763 9.25899609 -68.19757207 9.27652217 -76.17564601 9.3055203 C-82.34390112 9.32716022 -88.51210801 9.33722528 -94.68040067 9.33856082 C-98.36334251 9.33960758 -102.04612307 9.34548728 -105.72902489 9.36338043 C-109.84183475 9.38297234 -113.95428725 9.37856296 -118.06713867 9.37207031 C-119.28247787 9.3812851 -120.49781708 9.39049988 -121.74998474 9.3999939 C-130.30454988 9.35767639 -136.73714831 8.31753919 -143.0390625 2.015625 C-145.97255275 -3.24442647 -146.59798294 -7.1157104 -146.0390625 -12.984375 C-144.0390828 -18.86666823 -139.57321561 -23.21729845 -134.0390625 -25.984375 C-90.41918141 -30.25153728 -34.24693853 -31.69781365 0 0 Z " fill="#24B0C2" transform="translate(360.0390625,569.984375)"/>
<path d="M0 0 C-0.73766602 0.38369751 -0.73766602 0.38369751 -1.49023438 0.77514648 C-21.24158726 11.06574805 -40.22270287 21.63425621 -58.125 34.9375 C-58.72119141 35.37876221 -59.31738281 35.82002441 -59.93164062 36.2746582 C-71.1470396 44.73568714 -81.43361791 54.08127628 -91.33935547 64.02368164 C-93.12214596 65.80964089 -94.91792176 67.5817887 -96.71484375 69.35351562 C-104.49468247 77.09298839 -111.4264088 85.21541343 -118 94 C-118.66 93.67 -119.32 93.34 -120 93 C-111.45554981 82.19879303 -102.56061018 71.91296682 -93 62 C-92.1028125 61.0615625 -91.205625 60.123125 -90.28125 59.15625 C-85.40229461 54.15377676 -80.29509033 49.62860348 -74.83203125 45.2734375 C-71.93744897 42.94978662 -69.129544 40.54178741 -66.3125 38.125 C-56.37330356 29.83375323 -12.34056395 -6.17028198 0 0 Z " fill="#55D2DC" transform="translate(389,231)"/>
<path d="M0 0 C0.66 0.33 1.32 0.66 2 1 C1.11852295 1.8657666 0.2370459 2.7315332 -0.67114258 3.62353516 C-4.0022284 6.89949704 -7.32269888 10.18605489 -10.64038086 13.47558594 C-12.06598074 14.88628407 -13.49428276 16.29425781 -14.92553711 17.69921875 C-24.02957314 26.6403976 -32.41288625 35.72992151 -40 46 C-40.66 45.67 -41.32 45.34 -42 45 C-29.4471154 29.13165252 -16.04542305 12.49230652 0 0 Z " fill="#51CAD5" transform="translate(311,279)"/>
<path d="M0 0 C0 0.33 0 0.66 0 1 C-0.6290625 1.03738281 -1.258125 1.07476562 -1.90625 1.11328125 C-3.19015625 1.21189453 -3.19015625 1.21189453 -4.5 1.3125 C-5.3353125 1.37050781 -6.170625 1.42851562 -7.03125 1.48828125 C-10.1098396 2.01893288 -12.80642322 3.01491278 -15.70605469 4.1550293 C-20.17317982 5.80048695 -24.79258241 6.97050332 -29.375 8.25 C-37.95983982 10.67942253 -46.26801209 13.42480626 -54.46630859 16.95410156 C-58.13783703 18.49199696 -60.20259138 19.22349385 -64 18 C-51.48375311 12.83975837 -38.94159056 7.98987377 -26 4 C-24.9805127 3.68240723 -24.9805127 3.68240723 -23.94042969 3.35839844 C-15.8989454 0.89400962 -8.45902336 -0.63310778 0 0 Z " fill="#5ED5DE" transform="translate(453,211)"/>
<path d="M0 0 C1.85082382 0.07919289 3.69872176 0.22749127 5.54296875 0.40234375 C13.46159549 1.07675311 21.37232005 1.33494776 29.3125 1.5625 C30.74675315 1.60584415 32.18099804 1.64946251 33.61523438 1.69335938 C37.07673386 1.79872057 40.53832884 1.90041812 44 2 C44 2.33 44 2.66 44 3 C39.39705546 4.15994203 34.96256988 4.15261736 30.25 4.125 C29.42105225 4.12161621 28.59210449 4.11823242 27.73803711 4.11474609 C22.0072689 4.06792876 16.28614249 3.91482056 10.5625 3.625 C9.85963867 3.59422363 9.15677734 3.56344727 8.43261719 3.53173828 C4.84668111 3.31981808 2.06833431 2.93046097 -1 1 C-0.67 0.67 -0.34 0.34 0 0 Z " fill="#628698" transform="translate(483,586)"/>
<path d="M0 0 C41.23980265 -0.41277905 41.23980265 -0.41277905 58 2 C58 2.33 58 2.66 58 3 C50.41 3 42.82 3 35 3 C35 2.34 35 1.68 35 1 C23.45 1 11.9 1 0 1 C0 0.67 0 0.34 0 0 Z " fill="#7BD5E0" transform="translate(246,543)"/>
<path d="M0 0 C10.56625787 -0.09582904 21.13187549 -0.17502756 31.6875 0.375 C32.38673584 0.40585693 33.08597168 0.43671387 33.80639648 0.46850586 C37.35407708 0.68157046 38.96570261 0.97713507 42 3 C39.04487568 3.98504144 37.41983516 4.06660444 34.3671875 3.9140625 C33.47902344 3.87023437 32.59085938 3.82640625 31.67578125 3.78125 C30.75152344 3.7296875 29.82726562 3.678125 28.875 3.625 C27.47701172 3.55925781 27.47701172 3.55925781 26.05078125 3.4921875 C19.12950029 3.12950029 19.12950029 3.12950029 18 2 C16.65984779 1.84417697 15.31241097 1.74955858 13.96484375 1.68359375 C13.15595703 1.64169922 12.34707031 1.59980469 11.51367188 1.55664062 C10.66353516 1.51732422 9.81339844 1.47800781 8.9375 1.4375 C8.08349609 1.39431641 7.22949219 1.35113281 6.34960938 1.30664062 C4.23327963 1.20023298 2.11666187 1.09958269 0 1 C0 0.67 0 0.34 0 0 Z " fill="#57CAD8" transform="translate(761,543)"/>
<path d="M0 0 C3.54822446 0.57881268 5.18422803 1.82692359 7.671875 4.37890625 C8.33574219 5.05244141 8.99960937 5.72597656 9.68359375 6.41992188 C10.36550781 7.12697266 11.04742188 7.83402344 11.75 8.5625 C12.44738281 9.27341797 13.14476562 9.98433594 13.86328125 10.71679688 C15.5824658 12.47130714 17.29425872 14.23243352 19 16 C18.67 16.99 18.34 17.98 18 19 C17.28714844 18.20335937 16.57429687 17.40671875 15.83984375 16.5859375 C10.80919483 11.00677819 5.81467235 5.78095282 0 1 C0 0.67 0 0.34 0 0 Z " fill="#48C0CD" transform="translate(689,312)"/>
<path d="M0 0 C-2 1.33333333 -4 2.66666667 -6 4 C-6.33 4.99 -6.66 5.98 -7 7 C-7.66 7 -8.32 7 -9 7 C-8.6875 4.625 -8.6875 4.625 -8 2 C-4.77208445 -0.1519437 -3.71599191 -0.20086443 0 0 Z " fill="#369EB1" transform="translate(630,596)"/>
</svg>
